<svg xmlns="http://www.w3.org/2000/svg" viewBox="0 0 512 512" width="512" height="512">
  <rect width="512" height="512" rx="100" fill="#1e293b" />
  <path d="M245.6 130.1c-5.1-9.3-20.5-9.3-25.6 0L142.7 266.7c-2.4 4.3-.3 9.8 4.4 11.5l12.8 4.6c3.6 1.3 7.7-.3 9.4-3.7L192 222.2v167.6c0 4.4 3.6 8 8 8h16c4.4 0 8-3.6 8-8V222.2l22.7 56.9c1.7 3.4 5.8 5 9.4 3.7l12.8-4.6c4.7-1.7 6.8-7.2 4.4-11.5L245.6 130.1z" fill="#10b981" />
  <path d="M366.3 266.7l-77.3-136.6c-5.1-9.3-20.5-9.3-25.6 0L186.1 266.7c-2.4 4.3-.3 9.8 4.4 11.5l12.8 4.6c3.6 1.3 7.7-.3 9.4-3.7L235.4 222.2v167.6c0 4.4 3.6 8 8 8h16c4.4 0 8-3.6 8-8V222.2l22.7 56.9c1.7 3.4 5.8 5 9.4 3.7l12.8-4.6c4.7-1.7 6.8-7.2 4.4-11.5z" fill="#3b82f6" />
</svg>